<svg width="944" height="512" viewBox="0 0 944 512" fill="none" xmlns="http://www.w3.org/2000/svg">
<path d="M355.604 100.341C319.053 6.26344 189.5 -6.5 114.087 6.26344C38.6745 19.0269 -8.55946 74.9706 3.97027 151.235C24.851 278.33 471.835 221.282 425.931 376.405C407.882 437.398 230.047 457.23 181.329 463.079C8.25327 483.861 320.34 370.147 363.316 357.898C426.202 339.973 520.553 305.831 586.634 328.286C619.751 339.539 617.66 391.924 603.29 416.195C526.681 545.59 189.525 531.506 365.475 436.398C477.54 375.822 600.003 316.901 722.969 281.247C863.948 240.372 995.5 416.812 919.144 455.676" stroke="#ECFFDC" stroke-width="3" stroke-linecap="round"/>
</svg>
